# xmcd CD database file
#
# Track frame offsets:
#	150
#	15212
#	30062
#	44945
#	58765
#	74102
#	87392
#	101867
#	118682
#	136852
#	149470
#	164687
#	179195
#	191915
#	212067
#
# Disc length: 3028 seconds
#
# Revision: 0
# Processed by: cddbd v1.4PL0 Copyright (c) Steve Scherf et al.
# Submitted via: CDex 1.50
#
DISCID=ec0bd20f
DTITLE=Line Dance - Line Dance Extravaganza
DYEAR=1998
DGENRE=Country
TTITLE0=Achy Breaky Heart
TTITLE1=The Wanderer
TTITLE2=Boot Scootin' Boogie
TTITLE3=Get On The Line
TTITLE4=Hi Flyin' Woman (Of The World)
TTITLE5=Hangin' On To My Dreams
TTITLE6=Busted
TTITLE7=Sea Cruise
TTITLE8=Good Girl Love Bad Boys
TTITLE9=Honky Tonk Man
TTITLE10=Closer To The Light
TTITLE11=He's The One
TTITLE12=Wait For Me
TTITLE13=Swamp Thing
TTITLE14=Cotton-Eyed Joe
EXTD=YEAR: 1998
EXTT0=
EXTT1=
EXTT2=
EXTT3=
EXTT4=
EXTT5=
EXTT6=
EXTT7=
EXTT8=
EXTT9=
EXTT10=
EXTT11=
EXTT12=
EXTT13=
EXTT14=
PLAYORDER=
